HIERARCHY
ROOT Hips
{
	OFFSET 0.000000 0.000000 0.000000
	CHANNELS 6 Xposition Yposition Zposition Zrotation Yrotation Xrotation 
	JOINT LeftUpLeg_virtual
	{
		OFFSET 0.000000 0.000000 0.000000
		CHANNELS 3 Zrotation Yrotation Xrotation
		JOINT LeftUpLeg
		{
			OFFSET 10.205400 -3.823500 0.155100
			CHANNELS 3 Zrotation Yrotation Xrotation
			JOINT LeftLeg
			{
				OFFSET 0.708757 -12.982077 0.567790
				CHANNELS 3 Zrotation Yrotation Xrotation
				JOINT LeftFoot
				{
					OFFSET -0.708756 -10.717838 -2.184338
					CHANNELS 3 Zrotation Yrotation Xrotation
					JOINT LeftToeBase
					{
						OFFSET 0.108149 -7.191104 7.560241
						CHANNELS 3 Zrotation Yrotation Xrotation
						End Site
						{
							OFFSET 0.000000 0.000000 0.000000
						}
					}
				}
			}
		}
	}
	JOINT RightUpLeg_virtual
	{
		OFFSET 0.000000 0.000000 0.000000
		CHANNELS 3 Zrotation Yrotation Xrotation
		JOINT RightUpLeg
		{
			OFFSET -10.205400 -3.823500 0.005500
			CHANNELS 3 Zrotation Yrotation Xrotation
			JOINT RightLeg
			{
				OFFSET -0.708756 -12.982134 0.610632
				CHANNELS 3 Zrotation Yrotation Xrotation
				JOINT RightFoot
				{
					OFFSET 0.708754 -10.717769 -1.945823
					CHANNELS 3 Zrotation Yrotation Xrotation
					JOINT RightToeBase
					{
						OFFSET -0.108140 -7.191069 7.372968
						CHANNELS 3 Zrotation Yrotation Xrotation
						End Site
						{
							OFFSET 0.000000 0.000000 0.000000
						}
					}
				}
			}
		}
	}
	JOINT Spine_virtual
	{
		OFFSET 0.000000 0.000000 0.000000
		CHANNELS 3 Zrotation Yrotation Xrotation
		JOINT Spine
		{
			OFFSET 0.000000 6.876099 0.125700
			CHANNELS 3 Zrotation Yrotation Xrotation
			JOINT Spine1
			{
				OFFSET 0.000000 8.022060 0.146608
				CHANNELS 3 Zrotation Yrotation Xrotation
				JOINT Spine2
				{
					OFFSET 0.000000 9.168068 0.167552
					CHANNELS 3 Zrotation Yrotation Xrotation
					JOINT Neck_virtual
					{
						OFFSET 0.000000 0.000000 0.000000
						CHANNELS 3 Zrotation Yrotation Xrotation
						JOINT Neck
						{
							OFFSET 0.000000 10.314075 0.188496
							CHANNELS 3 Zrotation Yrotation Xrotation
							JOINT Head
							{
								OFFSET 0.000000 7.643700 -2.377400
								CHANNELS 3 Zrotation Yrotation Xrotation
								End Site
								{
									OFFSET 0.000000 0.000000 0.000000
								}
							}
						}
					}
					JOINT LeftShoulder_virtual
					{
						OFFSET 0.000000 0.000000 0.000000
						CHANNELS 3 Zrotation Yrotation Xrotation
						JOINT LeftShoulder
						{
							OFFSET 4.392200 8.824978 0.174984
							CHANNELS 3 Zrotation Yrotation Xrotation
							JOINT LeftArm
							{
								OFFSET 8.771219 -2.981674 -0.026999
								CHANNELS 3 Zrotation Yrotation Xrotation
								JOINT LeftForeArm
								{
									OFFSET 8.512804 0.000000 -0.000000
									CHANNELS 3 Zrotation Yrotation Xrotation
									JOINT LeftHand
									{
										OFFSET 18.484802 0.000000 -0.000000
										CHANNELS 3 Zrotation Yrotation Xrotation
										End Site
										{
											OFFSET 0.000000 0.000000 0.000000
										}
									}
								}
							}
						}
					}
					JOINT RightShoulder_virtual
					{
						OFFSET 0.000000 0.000000 0.000000
						CHANNELS 3 Zrotation Yrotation Xrotation
						JOINT RightShoulder
						{
							OFFSET -4.392200 8.824993 0.141379
							CHANNELS 3 Zrotation Yrotation Xrotation
							JOINT RightArm
							{
								OFFSET -8.771282 -2.981682 -0.094208
								CHANNELS 3 Zrotation Yrotation Xrotation
								JOINT RightForeArm
								{
									OFFSET -8.494598 0.000000 0.000000
									CHANNELS 3 Zrotation Yrotation Xrotation
									JOINT RightHand
									{
										OFFSET -18.483803 0.000000 0.000001
										CHANNELS 3 Zrotation Yrotation Xrotation
										End Site
										{
											OFFSET 0.000000 0.000000 0.000000
										}
									}
								}
							}
						}
					}
				}
			}
		}
	}
}
MOTION
Frames: 8
Frame Time: 0.033333
7.340153 36.741962 -15.755666 -179.964871 -26.824460 179.417349 -0.865812 0.386921 21.058993 6.080738 -1.797103 -26.988512 1.792999 2.563467 9.495315 -4.445071 0.023213 14.087239 0.000000 0.000000 0.000000 4.925342 -0.254520 20.463165 1.118029 -1.972381 -25.225198 -1.491768 1.384787 12.267561 7.621082 3.007621 13.381131 0.000000 0.000000 0.000000 2.499347 1.872173 16.554739 2.010797 -1.700928 3.872349 1.110414 -3.379672 6.553034 0.056785 0.078969 -0.043377 1.092384 -2.222260 8.150321 -4.625456 -2.546965 -4.922536 0.000000 0.000000 0.000000 2.852213 -1.407412 4.813355 0.012893 -6.782105 1.208594 11.757132 -24.083916 -17.203735 -131.748625 -89.792522 141.948406 0.000000 0.000000 0.000000 -1.850901 0.398845 3.444386 12.129990 17.367586 -2.249551 -3.509059 17.572313 -21.784781 -174.349048 62.436740 -175.578742 0.000000 0.000000 0.000000 
7.161770 36.759197 -16.095285 -179.946839 -26.673854 179.487768 -0.831084 0.375445 20.745639 5.847009 -2.082889 -25.974301 2.452070 2.411777 9.705725 -4.792121 -0.085451 13.475805 0.000000 0.000000 0.000000 4.919637 -0.261602 20.182536 1.258037 -2.047956 -24.098514 -1.698274 1.295802 12.062176 7.918494 2.680782 13.312296 0.000000 0.000000 0.000000 2.576384 1.864639 15.574935 2.326688 -1.663731 2.676265 1.177387 -3.411842 6.698440 -0.011093 0.058436 -0.084823 1.197553 -2.163300 8.449180 -3.494372 -2.660975 -3.508807 0.000000 0.000000 0.000000 2.977678 -1.339806 5.024143 -0.794571 -6.096833 1.037703 5.528300 -20.536603 -19.310890 -86.518457 -89.786020 96.396085 0.000000 0.000000 0.000000 -1.714138 0.538716 3.685225 12.011374 16.125576 -2.575351 1.728785 16.852385 -20.691211 -173.239129 62.783768 -175.087774 0.000000 0.000000 0.000000 
6.920216 36.768291 -16.508047 -179.925064 -26.415243 179.513518 -0.755072 0.371020 20.499739 5.482599 -2.453194 -24.841183 3.104671 2.394044 10.141725 -4.933777 -0.227405 12.839369 0.000000 0.000000 0.000000 4.935037 -0.284563 19.908740 1.324435 -2.102286 -22.934245 -1.938215 1.224157 12.046596 8.320196 2.339821 13.122561 0.000000 0.000000 0.000000 2.719102 1.849491 14.524194 2.676356 -1.589525 1.419020 1.256880 -3.435141 6.850243 0.028806 0.064712 -0.074449 1.256567 -2.113013 8.607177 -2.284119 -2.782032 -1.842224 0.000000 0.000000 0.000000 2.994576 -1.369274 5.093585 -1.722477 -5.558390 0.858430 -1.211778 -16.579150 -21.319157 -156.827072 -88.767741 166.719016 0.000000 0.000000 0.000000 -1.681186 0.488686 3.817782 12.109019 14.836467 -2.831853 7.469621 15.677407 -19.409183 -172.268818 63.121166 -174.732345 0.000000 0.000000 0.000000 
6.629630 36.758869 -16.958874 -179.857035 -25.925103 179.627773 -0.688129 0.375213 20.365138 4.967227 -2.833154 -23.696590 3.703491 2.307143 10.537980 -4.807497 -0.360985 12.326024 0.000000 0.000000 0.000000 4.923007 -0.212058 19.505794 1.318975 -2.090177 -21.863343 -2.210152 1.249862 12.201476 8.815684 2.029414 12.819815 0.000000 0.000000 0.000000 2.897627 1.927839 13.353934 3.080538 -1.426879 0.175963 1.327051 -3.476138 6.959649 -0.015825 0.042475 -0.028743 1.329755 -2.035679 8.789874 -0.970733 -2.820439 -0.155849 0.000000 0.000000 0.000000 3.025743 -1.446971 5.279687 -2.614421 -5.109791 0.856115 -8.169757 -12.408800 -23.165956 -165.727314 -86.844455 175.983881 0.000000 0.000000 0.000000 -1.681067 0.324530 4.003493 12.527755 13.742029 -2.805973 13.324119 14.144717 -18.242824 -170.793470 63.509346 -173.881644 0.000000 0.000000 0.000000 
6.314334 36.725933 -17.412605 -179.877567 -25.548519 179.827256 -0.730574 -0.375746 20.321573 4.414455 -3.394011 -22.475156 4.334808 2.383653 11.053484 -4.398723 -0.477415 11.452084 0.000000 0.000000 0.000000 4.816627 -0.409647 19.148847 1.261620 -2.027831 -20.868560 -2.505431 1.359184 12.431784 9.326053 1.714687 12.347687 0.000000 0.000000 0.000000 3.000263 1.668014 12.262035 3.478586 -1.377268 -1.045685 1.339382 -3.577417 7.028101 0.048754 0.039011 -0.026842 1.298487 -2.000476 8.971080 0.369470 -2.830798 1.641245 0.000000 0.000000 0.000000 2.942664 -1.423768 5.395429 -3.674583 -4.666795 0.896151 -15.039696 -8.145380 -24.538875 -167.660257 -84.751146 178.631549 0.000000 0.000000 0.000000 -1.763644 0.312379 4.208809 13.229393 12.775707 -2.952945 19.253950 12.362367 -17.392559 -169.679138 64.019957 -173.344081 0.000000 0.000000 0.000000 
5.984573 36.671371 -17.829670 -179.877635 -24.821025 179.885982 -0.829283 -0.844924 20.244478 3.852417 -3.974162 -21.452280 4.989855 2.444924 12.630454 -3.740212 -0.575664 9.677718 0.000000 0.000000 0.000000 4.687815 -0.443399 18.938339 1.137543 -1.772367 -19.920846 -2.840590 1.605490 12.820922 9.876285 1.473340 11.957204 0.000000 0.000000 0.000000 3.120009 1.665822 11.443997 3.953480 -1.186798 -2.105094 1.350196 -3.645993 7.093077 -0.013946 0.046651 -0.017792 1.401362 -2.337148 9.055643 1.728406 -2.811458 3.467733 0.000000 0.000000 0.000000 2.973575 -1.534937 5.525690 -4.864910 -4.492312 0.816566 -21.721103 -3.611378 -25.321823 -166.854172 -82.694992 178.835103 0.000000 0.000000 0.000000 -1.704376 0.158358 4.318084 14.232887 11.872014 -2.736312 24.826259 10.637161 -16.828174 -168.557444 64.504443 -172.636665 0.000000 0.000000 0.000000 
5.662323 36.603642 -18.199663 -179.824838 -24.019197 -179.934135 -0.914240 -0.998673 20.199209 3.266554 -4.130480 -20.968163 5.486789 2.554196 14.469609 -3.154819 -0.745642 7.949940 0.000000 0.000000 0.000000 4.670649 -0.219976 18.796534 0.979509 -1.252687 -19.292923 -3.185948 1.995164 13.208689 10.294544 1.224920 11.394777 0.000000 0.000000 0.000000 3.219422 1.671410 10.729540 4.495446 -1.023781 -3.111849 1.357685 -3.724723 7.120056 -0.003377 0.049708 0.002101 1.395877 -2.341026 9.138003 2.960684 -2.886541 5.297788 0.000000 0.000000 0.000000 2.898725 -1.612863 5.611013 -6.037856 -4.306316 1.034299 -27.832391 1.242470 -25.681720 -166.886779 -81.238700 -179.901131 0.000000 0.000000 0.000000 -1.792485 0.092558 4.438028 15.322928 11.178386 -2.566464 30.035846 8.905947 -16.359181 -167.661733 64.895349 -172.314061 0.000000 0.000000 0.000000 
5.354664 36.537212 -18.522963 -179.839960 -23.150839 -179.819319 -0.906649 -0.990556 20.332628 2.623284 -4.141919 -20.477703 5.802934 2.919044 15.408263 -2.648324 -0.886275 7.440733 0.000000 0.000000 0.000000 4.631348 0.065123 18.807635 0.639283 -0.583178 -18.902291 -3.645371 2.313226 13.673708 10.689892 1.028029 10.749744 0.000000 0.000000 0.000000 3.281374 1.794805 10.271470 5.086018 -0.887841 -3.952195 1.362136 -3.818810 7.177244 -0.036791 0.042689 0.021139 1.472119 -2.289128 9.247131 4.103272 -2.975359 7.047095 0.000000 0.000000 0.000000 2.863702 -1.670567 5.706202 -7.131289 -4.116474 1.369677 -33.525502 6.270900 -25.631214 -166.321472 -80.408245 -179.090784 0.000000 0.000000 0.000000 -1.805876 -0.000446 4.577573 16.461837 10.593976 -2.349345 34.572454 7.244712 -15.939233 -167.007824 65.152498 -172.004025 0.000000 0.000000 0.000000 
